HIERARCHY
ROOT root
{
	OFFSET 0.000000 0.000000 0.000000
	CHANNELS 6 Xposition Yposition Zposition Zrotation Yrotation Xrotation
	JOINT lhip
	{
		OFFSET 0.058581 -0.082280 -0.017664
		CHANNELS 3 Zrotation Yrotation Xrotation
		JOINT lknee
		{
			OFFSET 0.043451 -0.386469 0.008037
			CHANNELS 3 Zrotation Yrotation Xrotation
			JOINT lankle
			{
				OFFSET -0.014790 -0.426874 -0.037428
				CHANNELS 3 Zrotation Yrotation Xrotation
				JOINT ltoe
				{
					OFFSET 0.041054 -0.060286 0.122042
					CHANNELS 3 Zrotation Yrotation Xrotation
					End Site
					{
						OFFSET 0.000000 0.000000 0.000000
					}
				}
			}
		}
	}
	JOINT rhip
	{
		OFFSET -0.060310 -0.090513 -0.013543
		CHANNELS 3 Zrotation Yrotation Xrotation
		JOINT rknee
		{
			OFFSET -0.043257 -0.383688 -0.004843
			CHANNELS 3 Zrotation Yrotation Xrotation
			JOINT rankle
			{
				OFFSET 0.019056 -0.420046 -0.034562
				CHANNELS 3 Zrotation Yrotation Xrotation
				JOINT rtoe
				{
					OFFSET -0.034840 -0.062106 0.130323
					CHANNELS 3 Zrotation Yrotation Xrotation
					End Site
					{
						OFFSET 0.000000 0.000000 0.000000
					}
				}
			}
		}
	}
	JOINT lowerback
	{
		OFFSET 0.004439 0.124404 -0.038385
		CHANNELS 3 Zrotation Yrotation Xrotation
		JOINT upperback
		{
			OFFSET 0.004488 0.137956 0.026820
			CHANNELS 3 Zrotation Yrotation Xrotation
			JOINT chest
			{
				OFFSET -0.002265 0.056032 0.002855
				CHANNELS 3 Zrotation Yrotation Xrotation
				JOINT lowerneck
				{
					OFFSET -0.013390 0.211636 -0.033468
					CHANNELS 3 Zrotation Yrotation Xrotation
					JOINT upperneck
					{
						OFFSET 0.010113 0.088937 0.050410
						CHANNELS 3 Zrotation Yrotation Xrotation
						End Site
						{
							OFFSET 0.000000 0.000000 0.000000
						}
					}
				}
				JOINT lclavicle
				{
					OFFSET 0.071702 0.114000 -0.018898
					CHANNELS 3 Zrotation Yrotation Xrotation
					JOINT lshoulder
					{
						OFFSET 0.122921 0.045205 -0.019046
						CHANNELS 3 Zrotation Yrotation Xrotation
						JOINT lelbow
						{
							OFFSET 0.255332 -0.015649 -0.022946
							CHANNELS 3 Zrotation Yrotation Xrotation
							JOINT lwrist
							{
								OFFSET 0.265709 0.012698 -0.007375
								CHANNELS 3 Zrotation Yrotation Xrotation
								End Site
								{
									OFFSET 0.000000 0.000000 0.000000
								}
							}
						}
					}
				}
				JOINT rclavicle
				{
					OFFSET -0.082954 0.112472 -0.023707
					CHANNELS 3 Zrotation Yrotation Xrotation
					JOINT rshoulder
					{
						OFFSET -0.113228 0.046853 -0.008472
						CHANNELS 3 Zrotation Yrotation Xrotation
						JOINT relbow
						{
							OFFSET -0.260127 -0.014369 -0.031269
							CHANNELS 3 Zrotation Yrotation Xrotation
							JOINT rwrist
							{
								OFFSET -0.269108 0.006794 -0.006027
								CHANNELS 3 Zrotation Yrotation Xrotation
								End Site
								{
									OFFSET 0.000000 0.000000 0.000000
								}
							}
						}
					}
				}
			}
		}
	}
}
MOTION
Frames: 14
Frame Time: 0.033333
1.276838 0.729740 0.925219 -95.196165 1.636286 89.197020 5.796992 1.991909 -27.812552 -2.808627 9.106995 49.937725 6.486982 16.085146 -26.774752 0.000000 -0.000000 0.000000 1.888410 0.649558 -25.606652 0.906290 -3.684711 46.830935 -0.806201 -9.959323 -28.209178 0.000000 -0.000000 0.000000 -1.730493 0.562418 26.503507 2.593393 -3.887009 -4.975123 2.274471 -1.111323 -0.081062 1.494198 6.350657 -24.899967 1.684425 0.922331 -11.460137 -24.144231 -10.689554 2.096606 -43.278542 -7.889981 0.095059 12.132332 -21.418802 -9.236010 1.385530 -2.885457 -9.056497 22.617934 11.613688 2.407262 47.566425 8.827537 2.101002 -27.200522 18.581086 -25.498277 -2.758540 2.512239 -9.247055 
1.278391 0.729598 0.909047 -93.873098 1.946972 89.910571 6.409845 2.884490 -32.068592 -2.774032 10.154406 55.424501 6.594833 15.953406 -28.137585 0.000000 -0.000000 0.000000 1.547748 0.226262 -28.931445 0.859499 -5.001302 51.678827 -0.936420 -10.328562 -30.238214 0.000000 -0.000000 0.000000 -1.599127 0.268856 29.847813 2.714888 -3.549066 -7.711431 2.501331 -1.433352 -0.255921 1.621388 6.818406 -26.174287 1.405035 0.983590 -12.481500 -23.848053 -11.151741 2.447254 -41.259580 -6.089982 0.733938 11.486328 -25.173960 -7.121045 8.953611 -3.525693 -7.928216 22.186584 12.924414 2.485904 45.577272 11.022866 -0.327992 -25.995576 15.355713 -32.153614 -11.477542 -0.019619 -14.856373 
1.279746 0.729472 0.889848 -92.749223 2.071504 89.489988 7.160493 3.293287 -34.900653 -3.213211 11.059003 60.607689 6.987802 16.057252 -29.546785 0.000000 -0.000000 0.000000 0.948387 -0.382920 -31.086120 1.096745 -5.978956 56.628120 -1.495570 -10.988627 -32.424197 0.000000 -0.000000 0.000000 -1.661879 0.390174 31.216079 2.703535 -3.897014 -5.713412 2.432716 -0.991653 -1.106769 1.600598 7.086166 -26.552038 1.059906 1.702126 -14.907270 -22.854615 -13.115737 3.416760 -40.487381 -4.550489 1.192762 11.543019 -27.644826 -7.175742 19.221921 -4.080733 -8.434664 21.934399 16.610810 3.461744 43.746794 15.129616 -3.125485 -25.681847 11.431480 -39.026624 -24.557849 -3.448413 -14.019134 
1.279362 0.729282 0.871482 -91.628441 2.068229 89.661313 7.971783 2.972098 -37.497477 -3.077878 11.649890 65.084917 6.595096 14.468544 -32.121416 0.000000 -0.000000 0.000000 0.173612 -0.556715 -33.426333 1.591199 -6.945123 61.022906 -2.650225 -13.013211 -34.407125 0.000000 -0.000000 0.000000 -1.463878 0.203054 32.333079 1.865380 -3.825368 -4.407125 2.829622 -0.628972 -2.623668 0.150562 6.390521 -28.502321 2.024554 2.996898 -14.698618 -24.645801 -15.530773 4.941649 -38.771740 -1.457749 -0.982488 10.220516 -27.793712 -7.984992 23.625878 -7.836937 -6.545960 23.014099 21.579061 7.219538 40.009098 19.795467 -6.943940 -23.605290 10.855409 -45.999010 -41.904440 -5.361799 -12.439141 
1.278075 0.730144 0.857779 -90.254663 1.777645 89.647343 8.272934 2.319536 -39.424030 -4.418638 11.245040 68.400630 6.264245 14.126991 -33.547420 0.000000 -0.000000 0.000000 -0.475423 -0.974844 -35.017800 1.405526 -7.578005 64.737023 -3.049961 -13.918025 -36.044586 0.000000 -0.000000 0.000000 -1.780619 0.852434 32.554220 1.653954 -3.463612 -3.123720 2.751572 -0.193511 -3.336706 -0.459055 7.833005 -30.264861 0.254964 3.441544 -13.927064 -25.849514 -16.628172 5.772842 -40.369522 0.219091 -0.651927 11.134635 -25.856034 -7.915546 23.418491 -7.095172 -6.254184 24.849369 24.896637 8.370040 37.945340 25.193898 -7.565426 -22.870090 12.655314 -45.940394 -38.041490 -5.751832 -15.409818 
1.274465 0.732279 0.852861 -88.173122 1.335989 89.885277 8.220117 0.764170 -40.568283 -5.241255 11.068061 69.798044 6.066710 13.863665 -34.173588 0.000000 -0.000000 0.000000 -0.825357 -1.090526 -35.465568 0.459683 -8.096533 66.359654 -3.325322 -15.312367 -36.765707 0.000000 -0.000000 0.000000 -2.065560 1.896154 32.184394 1.321080 -2.817199 -2.513798 2.808248 0.416110 -4.023275 -1.465042 9.076324 -31.280288 -1.935944 4.326599 -13.387553 -27.510899 -17.205075 6.905271 -43.253436 2.647049 0.231651 11.576324 -24.236589 -6.072477 20.807812 -5.985905 -5.833215 27.361743 28.061664 9.991447 36.829286 30.192893 -6.424269 -22.670928 18.974792 -42.000537 -29.207929 -5.731283 -18.992285 
1.268254 0.735798 0.859273 -84.642412 1.032034 90.452799 7.860838 -1.561925 -40.344868 -5.915955 10.091913 67.888601 6.246308 13.252060 -33.445438 0.000000 -0.000000 0.000000 -1.070077 -1.338098 -34.215280 -0.285379 -9.289192 64.733627 -3.297414 -16.888561 -36.335715 0.000000 -0.000000 0.000000 -1.716888 3.185356 30.139977 0.762570 -1.705493 -0.670796 2.618280 1.353400 -4.869824 -3.029217 10.570341 -32.349822 -4.465742 5.220890 -12.802996 -27.602555 -17.010213 7.455735 -47.323632 4.849998 1.572292 9.528837 -23.729617 -0.356794 16.820711 -5.173193 -5.086568 27.583923 30.234063 10.707302 38.279554 34.467398 -2.976211 -23.224123 30.052606 -34.342937 -23.035767 -2.832043 -21.994655 
1.257079 0.739491 0.880079 -78.425766 0.764564 91.397085 6.550266 -3.351267 -38.392960 -7.707735 7.059238 62.001714 7.456311 12.155219 -30.892425 0.000000 -0.000000 0.000000 -1.355132 -3.790040 -30.717627 -0.175862 -11.231890 59.201549 -3.113396 -18.151156 -34.245434 0.000000 -0.000000 0.000000 -0.042302 4.441407 27.946808 -0.665535 -0.390941 -2.995327 2.027759 2.467331 -3.712590 -4.450459 10.724435 -31.782968 -5.961120 7.248847 -10.723063 -25.648668 -16.453780 6.608265 -51.374537 8.419867 2.919832 3.861287 -23.416355 10.446389 8.693219 -4.878217 -2.104847 23.290402 31.783533 9.630428 44.333774 34.521861 3.288776 -25.992278 45.601050 -26.470354 -11.109541 0.848061 -22.064160 
1.237732 0.742352 0.917830 -69.794787 0.342157 92.513284 4.998075 -3.575665 -33.803803 -9.447063 2.420012 51.851402 7.739634 7.631023 -25.258532 0.000000 -0.000000 0.000000 -1.268943 -8.240588 -23.995716 0.106021 -14.052237 48.519957 -2.939216 -17.714188 -29.959520 0.000000 -0.000000 0.000000 1.208507 7.796556 21.821705 -1.433170 0.832839 -1.690853 1.830484 3.771005 -3.670794 -6.364587 12.554642 -28.835466 -7.275650 7.899440 -9.211335 -22.285941 -16.185576 5.118978 -55.046103 10.101411 4.702900 -2.441326 -18.893989 23.106886 -1.057906 -3.366470 2.411603 19.504924 31.314047 9.050098 47.349718 32.274315 7.922068 -26.250274 63.181810 -16.664818 -9.314279 4.062112 -21.451675 
1.217164 0.742344 0.972822 -58.014454 -0.423370 93.711511 3.963551 -3.692736 -27.230288 -10.268471 -1.418906 36.532104 4.838913 0.324608 -13.240610 0.000000 -0.000000 0.000000 -0.309857 -11.758792 -15.094102 -0.482958 -18.826953 32.814603 -2.220054 -17.014010 -17.800500 0.000000 -0.000000 0.000000 1.100829 10.936935 15.361655 -1.403831 1.495619 -1.325848 2.588298 4.118022 -3.365367 -8.305365 16.291098 -25.445273 -8.406517 11.431604 -6.262123 -18.175310 -15.361694 3.420323 -60.677769 9.154154 5.209074 -2.936362 -10.620920 29.510691 -12.282638 1.581614 8.450269 15.705705 28.831539 7.393141 53.612475 29.627152 14.311749 -18.694673 75.665396 -0.946720 -1.747479 7.227444 -19.976578 
1.199601 0.736742 1.038017 -43.263870 -2.911505 94.446211 0.761149 -4.476951 -18.858245 -7.248984 -4.335720 15.698576 -8.127699 -8.042552 13.723976 0.000000 -0.000000 0.000000 0.873329 -13.042224 -8.724551 -5.637920 -24.055588 20.374137 0.603593 -14.182407 6.491008 0.000000 -0.000000 0.000000 0.208199 12.151541 9.681743 -2.683158 1.543805 1.585984 2.642647 4.027303 -6.263130 -10.290443 18.926142 -19.255119 -8.562966 17.557439 -7.356450 -17.022911 -16.137680 4.806062 -64.655278 9.198048 5.155705 2.023416 -9.222266 31.704803 -24.061183 8.007581 14.127447 13.923607 28.344886 9.163047 62.296396 25.022069 19.057575 -10.327030 79.647627 11.395239 8.371393 8.957783 -20.666055 
1.188823 0.725775 1.103109 -25.649445 -5.531310 94.727753 -4.552302 -3.388299 -11.443876 -0.003465 3.988733 -4.158257 -18.004066 -1.319427 34.930836 0.000000 -0.000000 0.000000 1.586697 -12.565661 -5.303038 -9.829776 -28.951828 11.103487 3.004821 -12.789457 30.326281 0.000000 -0.000000 0.000000 -0.470987 10.420265 4.287243 -4.148428 1.599258 5.383925 2.519663 4.577361 -9.426693 -13.041888 20.985787 -11.065275 -10.175597 24.070098 -12.587832 -18.910359 -16.216186 7.130306 -63.860788 7.122370 5.407364 2.967589 -9.755298 29.642505 -31.574255 12.155097 17.482386 16.447923 25.928975 14.497478 66.861174 22.745383 21.587471 -1.336512 77.142545 18.967048 7.695064 7.117262 -18.555551 
1.183770 0.718569 1.155807 -6.972156 -5.978026 94.647706 -4.968421 -0.521112 -11.746474 2.059727 15.050864 0.456588 -15.521335 0.221766 35.885086 0.000000 -0.000000 0.000000 2.701398 -8.724678 -4.627402 -4.471086 -20.623234 4.623778 10.245051 -2.982442 37.031643 0.000000 -0.000000 0.000000 0.347407 9.154688 0.533840 -4.176094 0.702253 7.713397 1.532639 4.664713 -11.718797 -12.959503 25.194075 -6.559515 -12.400913 29.098606 -13.186781 -23.460361 -15.974141 7.786288 -60.329842 6.824545 3.457877 6.021135 -15.292579 31.189241 -29.067634 16.250726 48.068635 19.388781 21.782795 17.900290 67.091317 20.116816 19.083679 10.759116 73.364673 33.633091 16.834130 7.184715 -13.278658 
1.182731 0.718220 1.194215 12.216878 -6.136827 94.170469 -2.645387 -2.700314 -13.474347 -0.315017 7.281677 8.061651 -14.616342 -3.000588 39.088987 0.000000 -0.000000 0.000000 2.148952 -6.324366 -9.349829 -2.325038 -15.736161 7.394839 13.970723 -0.494893 38.418607 0.000000 -0.000000 0.000000 1.189345 8.713278 -0.218027 -3.667135 0.052769 7.885533 0.240233 4.079891 -11.727798 -13.023094 28.880123 -7.218118 -12.654898 31.636400 -11.915272 -24.730798 -16.925990 6.643723 -59.030815 6.110392 8.589820 3.108755 -25.160953 45.341114 -22.175867 17.028321 62.633628 19.969337 18.168978 16.957608 67.636305 14.290431 16.848086 7.769182 71.813423 33.414503 22.485858 6.918397 -9.623598 
